<?xml version="1.0" encoding="UTF-8" standalone="no"?><!-- Generator: Gravit.io --><svg xmlns="http://www.w3.org/2000/svg" xmlns:xlink="http://www.w3.org/1999/xlink" style="isolation:isolate" viewBox="0 0 345 400" width="345pt" height="400pt"><defs><clipPath id="_clipPath_HPUB2orRV2NBJCnOGxU0qqMRTXrgp4UL"><rect width="345" height="400"/></clipPath></defs><g clip-path="url(#_clipPath_HPUB2orRV2NBJCnOGxU0qqMRTXrgp4UL)"><path d=" M 191.723 0 Q 266.573 0.53 307.566 35.291 Q 312.456 40.576 310.601 52.681 Q 307.988 60.268 302.001 64.445 Q 296.268 69.389 285.814 69.56 Q 268.905 64.663 257.485 54.216 Q 235.916 41.244 200.828 41.94 Q 123.907 48.047 85.997 93.599 Q 56.722 115.146 56.657 166.227 L 61.21 179.014 L 63.739 177.479 L 65.257 173.899 Q 73.983 188.092 75.88 209.19 Q 80.584 215.174 78.915 227.603 Q 69.123 240.718 67.786 262.383 L 72.339 269.032 Q 83.359 266.584 87.009 271.589 Q 88.276 284.629 94.597 292.559 L 105.22 294.094 C 101.999 296.717 102.489 301.726 103.196 305.346 L 103.196 305.346 L 112.302 313.53 C 112.784 325.214 117.488 336.827 129.495 340.069 C 137.536 342.239 146.251 341.227 154.289 339.614 L 154.289 339.614 L 175.535 335.523 Q 194.541 337.276 206.899 345.752 Q 215.33 355.129 232.192 355.981 Q 240.978 334.688 256.474 320.179 Q 276.878 311.655 289.355 295.117 L 302.001 279.261 L 314.142 272.101 L 318.695 274.658 C 321.091 278.141 320.493 283.04 319.707 286.933 L 319.707 286.933 L 305.543 308.415 L 309.084 309.949 L 318.695 301.254 Q 329.098 282.107 333.365 256.757 Q 338.98 257.217 340.953 261.36 Q 344.494 265.452 342.977 274.658 Q 342.218 286.166 345 294.094 Q 340.033 297.256 340.953 306.369 Q 344.639 307.757 343.988 313.53 L 333.871 330.919 L 334.883 333.988 Q 328.524 351.598 315.154 362.119 Q 269.743 401.109 184.641 399.968 Q 101.336 389.574 56.657 340.126 Q 0.145 290.879 0 184.64 Q 10.556 98.645 62.221 54.216 Q 107.453 7.372 191.723 0 Z " fill="rgb(186,45,32)"/></g></svg>